<?xml version="1.0" standalone="no"?><!DOCTYPE svg PUBLIC "-//W3C//DTD SVG 1.1//EN" "http://www.w3.org/Graphics/SVG/1.1/DTD/svg11.dtd"><svg t="1717200341398" class="icon" viewBox="0 0 1024 1024" version="1.1" xmlns="http://www.w3.org/2000/svg" p-id="15984" xmlns:xlink="http://www.w3.org/1999/xlink" width="38" height="38"><path d="M672 353.6v153.92c0 103.36-66.24 192-160 228.48-93.76-36.48-160-125.12-160-228.48v-153.92c70.72 0 160-31.68 160-65.6 0 33.92 89.28 65.6 160 65.6z" fill="#E0EBFE" p-id="15985"></path><path d="M992 512h-288.32c0-1.504 0.32-2.976 0.32-4.48v-153.92a32 32 0 0 0-32-32c-59.776 0-117.952-23.68-128.16-36.96a32 32 0 0 0-63.68 0c-10.24 13.28-68.384 36.96-128.16 36.96a32 32 0 0 0-32 32v153.92c0 1.504 0.32 2.976 0.32 4.48H32a32 32 0 0 0 0 64h297.472c22.08 84.928 83.968 156 170.912 189.824a32 32 0 0 0 23.232 0c86.944-33.824 148.8-104.896 170.912-189.824H992a32 32 0 0 0 0-64z m-352-4.48c0 83.616-49.824 158.4-128 193.792-78.176-35.392-128-110.176-128-193.792v-123.84c42.528-4.8 95.008-18.464 128-42.464 32.992 24 85.472 37.664 128 42.432v123.84z" fill="#5465CF" p-id="15986"></path></svg>